<mxfile host="app.diagrams.net" modified="2022-08-19T16:29:27.055Z" agent="5.0 (Macintosh; Intel Mac OS X 10_15_7) AppleWebKit/537.36 (KHTML, like Gecko) Chrome/104.0.0.0 Safari/537.36" etag="xYsUqN-Wj8anPEQnaqmI" version="20.2.4" type="github">
  <diagram id="R2lEEEUBdFMjLlhIrx00" name="Page-1">
    <mxGraphModel dx="831" dy="633" grid="1" gridSize="10" guides="1" tooltips="1" connect="1" arrows="1" fold="1" page="1" pageScale="1" pageWidth="850" pageHeight="1100" math="0" shadow="0" extFonts="Permanent Marker^https://fonts.googleapis.com/css?family=Permanent+Marker">
      <root>
        <mxCell id="0" />
        <mxCell id="1" parent="0" />
        <mxCell id="EPrGN1TlsUlm53mdPxJ5-66" value="Customer" style="shape=table;startSize=40;container=1;collapsible=1;childLayout=tableLayout;fixedRows=1;rowLines=0;fontStyle=1;align=center;resizeLast=1;" vertex="1" parent="1">
          <mxGeometry x="20" y="170" width="180" height="130" as="geometry" />
        </mxCell>
        <mxCell id="EPrGN1TlsUlm53mdPxJ5-67" value="" style="shape=tableRow;horizontal=0;startSize=0;swimlaneHead=0;swimlaneBody=0;fillColor=none;collapsible=0;dropTarget=0;points=[[0,0.5],[1,0.5]];portConstraint=eastwest;top=0;left=0;right=0;bottom=1;" vertex="1" parent="EPrGN1TlsUlm53mdPxJ5-66">
          <mxGeometry y="40" width="180" height="70" as="geometry" />
        </mxCell>
        <mxCell id="EPrGN1TlsUlm53mdPxJ5-68" value="PK" style="shape=partialRectangle;connectable=0;fillColor=none;top=0;left=0;bottom=0;right=0;fontStyle=1;overflow=hidden;" vertex="1" parent="EPrGN1TlsUlm53mdPxJ5-67">
          <mxGeometry width="29" height="70" as="geometry">
            <mxRectangle width="29" height="70" as="alternateBounds" />
          </mxGeometry>
        </mxCell>
        <mxCell id="EPrGN1TlsUlm53mdPxJ5-69" value="UserID&#xa;firstName&#xa;LastName" style="shape=partialRectangle;connectable=0;fillColor=none;top=0;left=0;bottom=0;right=0;align=left;spacingLeft=6;fontStyle=1;overflow=hidden;" vertex="1" parent="EPrGN1TlsUlm53mdPxJ5-67">
          <mxGeometry x="29" width="151" height="70" as="geometry">
            <mxRectangle width="151" height="70" as="alternateBounds" />
          </mxGeometry>
        </mxCell>
        <mxCell id="EPrGN1TlsUlm53mdPxJ5-89" value="Tweet" style="shape=table;startSize=30;container=1;collapsible=1;childLayout=tableLayout;fixedRows=1;rowLines=0;fontStyle=1;align=center;resizeLast=1;" vertex="1" parent="1">
          <mxGeometry x="320" y="110" width="180" height="140" as="geometry" />
        </mxCell>
        <mxCell id="EPrGN1TlsUlm53mdPxJ5-90" value="" style="shape=tableRow;horizontal=0;startSize=0;swimlaneHead=0;swimlaneBody=0;fillColor=none;collapsible=0;dropTarget=0;points=[[0,0.5],[1,0.5]];portConstraint=eastwest;top=0;left=0;right=0;bottom=1;" vertex="1" parent="EPrGN1TlsUlm53mdPxJ5-89">
          <mxGeometry y="30" width="180" height="80" as="geometry" />
        </mxCell>
        <mxCell id="EPrGN1TlsUlm53mdPxJ5-91" value="PK" style="shape=partialRectangle;connectable=0;fillColor=none;top=0;left=0;bottom=0;right=0;fontStyle=1;overflow=hidden;" vertex="1" parent="EPrGN1TlsUlm53mdPxJ5-90">
          <mxGeometry width="30" height="80" as="geometry">
            <mxRectangle width="30" height="80" as="alternateBounds" />
          </mxGeometry>
        </mxCell>
        <mxCell id="EPrGN1TlsUlm53mdPxJ5-92" value="tweetID&#xa;content" style="shape=partialRectangle;connectable=0;fillColor=none;top=0;left=0;bottom=0;right=0;align=left;spacingLeft=6;fontStyle=5;overflow=hidden;" vertex="1" parent="EPrGN1TlsUlm53mdPxJ5-90">
          <mxGeometry x="30" width="150" height="80" as="geometry">
            <mxRectangle width="150" height="80" as="alternateBounds" />
          </mxGeometry>
        </mxCell>
        <mxCell id="EPrGN1TlsUlm53mdPxJ5-93" value="" style="shape=tableRow;horizontal=0;startSize=0;swimlaneHead=0;swimlaneBody=0;fillColor=none;collapsible=0;dropTarget=0;points=[[0,0.5],[1,0.5]];portConstraint=eastwest;top=0;left=0;right=0;bottom=0;" vertex="1" parent="EPrGN1TlsUlm53mdPxJ5-89">
          <mxGeometry y="110" width="180" height="20" as="geometry" />
        </mxCell>
        <mxCell id="EPrGN1TlsUlm53mdPxJ5-94" value="FK" style="shape=partialRectangle;connectable=0;fillColor=none;top=0;left=0;bottom=0;right=0;editable=1;overflow=hidden;" vertex="1" parent="EPrGN1TlsUlm53mdPxJ5-93">
          <mxGeometry width="30" height="20" as="geometry">
            <mxRectangle width="30" height="20" as="alternateBounds" />
          </mxGeometry>
        </mxCell>
        <mxCell id="EPrGN1TlsUlm53mdPxJ5-95" value="UserID" style="shape=partialRectangle;connectable=0;fillColor=none;top=0;left=0;bottom=0;right=0;align=left;spacingLeft=6;overflow=hidden;" vertex="1" parent="EPrGN1TlsUlm53mdPxJ5-93">
          <mxGeometry x="30" width="150" height="20" as="geometry">
            <mxRectangle width="150" height="20" as="alternateBounds" />
          </mxGeometry>
        </mxCell>
        <mxCell id="EPrGN1TlsUlm53mdPxJ5-102" value="" style="edgeStyle=entityRelationEdgeStyle;fontSize=12;html=1;endArrow=ERmany;rounded=0;exitX=1;exitY=0.25;exitDx=0;exitDy=0;entryX=-0.011;entryY=0.104;entryDx=0;entryDy=0;entryPerimeter=0;" edge="1" parent="1" source="EPrGN1TlsUlm53mdPxJ5-66" target="EPrGN1TlsUlm53mdPxJ5-89">
          <mxGeometry width="100" height="100" relative="1" as="geometry">
            <mxPoint x="210" y="285" as="sourcePoint" />
            <mxPoint x="310" y="185" as="targetPoint" />
          </mxGeometry>
        </mxCell>
      </root>
    </mxGraphModel>
  </diagram>
</mxfile>
